<?xml version="1.0" encoding="UTF-8"?><svg id="Laag_1" xmlns="http://www.w3.org/2000/svg" viewBox="0 0 507.53 356.69"><defs><style>.cls-1{fill:#1d1d1b;font-family:Commando, Commando;font-size:75.94px;}</style></defs><path d="M260.07,60.67v-19.12h118.43V8.55c-4.79-1.13-9.38-2.21-18.51-4.36,6.85-2.3,9.57-3.98,12.3-4.01,22.31-.22,44.63-.03,66.94-.18,11.32-.08,18.83,5.3,18.66,16.42-.16,10.93-7.78,16.54-18.92,16.56-6.06,0-12.12,0-18.18,0-.17-1.99-.34-3.97-.51-5.96,5.38-.69,11.04-.58,16.08-2.3,4.92-1.67,9.2-5.21,13.76-7.93-4.63-3.29-8.99-8.83-13.94-9.43-11.69-1.4-23.67-.45-36.96-.45V39.25c3.83,.99,8.2,2.12,15.03,3.89-19.45,9.34-12.69,21.95-8.28,34.24,60.98,6.8,90.66,29.03,99.6,74.22,8.62,43.52-10.58,74.1-66.07,105.44,19.15,.99,38.49,1.98,57.83,2.98l-.03,3.03H10.29c-.02-1.11-.04-2.22-.05-3.33h57.47c.54-1.14,1.09-2.27,1.63-3.41-30.02-9.49-52.73-27.12-63.36-56.67-10.78-29.98-7.06-58.79,11.74-84.69,31.53-43.45,82.71-47.36,137.35-10.43,23.42-18.5,47.46-36.8,70.48-56.29,4.16-3.52,4.17-11.96,6.43-19.19-15.72-2.94-32.16-1.08-35.63-22.03,24.34,0,47.93-1.01,71.33,.68,6.15,.44,11.7,9.22,17.53,14.17-.83,1.67-1.66,3.35-2.48,5.02h-33.69v121.27c37.43-29.43,72.5-57.01,111.26-87.48h-100.23Zm123.03,7.21c-6.46,4.71-10.9,7.74-15.1,11.06-38.51,30.35-76.86,60.89-115.58,90.96-5.6,4.35-12.89,6.5-22.93,11.39V70.39c-37.86,29.85-72.84,57.44-107.81,85.02,.46,1.06,.91,2.13,1.37,3.19h96.19v19.35c-9.96,0-18.85,.58-27.63-.16-9.22-.78-13.33,2.95-15.1,11.76-3.95,19.72-14.47,35.89-30.2,48-9.35,7.2-20.3,12.32-32.24,19.38H391.73c-34.66-14.92-56.74-38.69-63.04-77.13h15.5c21.47,51.42,57.37,72.02,97.93,56.51,37.74-14.43,56.57-53.9,43.87-91.97-10.6-31.77-47.36-54.56-75.37-45.8,6.07,25.77,12.16,51.64,18.25,77.52-13.1,4.6-19.72,1.64-22.67-12.13-6.72-31.37-14.91-62.43-23.09-96.07ZM67.64,178.21l-1.45-3.37c24.24-19.27,48.48-38.54,72.79-57.86-22.47-24.44-59.09-28.18-87.83-10.05-29.08,18.35-41.39,55.06-29.25,87.26,12.38,32.83,46.54,51.33,83.05,44.97,28.85-5.02,54.2-32.85,54.37-60.96H67.64Z"/><text class="cls-1" transform="translate(96.64 341.29)"><tspan x="0" y="0">VeloBikes</tspan></text></svg>